<ttFont>
    <TTGlyph name=".notdef" xMin="102" yMin="0" xMax="922" yMax="1462">
      <contour>
        <pt x="102" y="0" on="1"/>
        <pt x="102" y="1462" on="1"/>
        <pt x="922" y="1462" on="1"/>
        <pt x="922" y="0" on="1"/>
      </contour>
      <contour>
        <pt x="201" y="98" on="1"/>
        <pt x="823" y="98" on="1"/>
        <pt x="823" y="1364" on="1"/>
        <pt x="201" y="1364" on="1"/>
      </contour>
    </TTGlyph>
    <TTGlyph name="glyph00004" xMin="100" yMin="-50" xMax="1597" yMax="1494">
      <contour>
        <pt x="1597" y="1375" on="1"/>
        <pt x="1439" y="1140" on="0"/>
        <pt x="1265" y="600" on="0"/>
        <pt x="1265" y="343" on="1"/>
        <pt x="1265" y="126" on="0"/>
        <pt x="1292" y="31" on="1"/>
        <pt x="1163" y="-50" on="1"/>
        <pt x="986" y="309" on="0"/>
        <pt x="649" y="873" on="0"/>
        <pt x="499" y="1087" on="1"/>
        <pt x="506" y="1026" on="0"/>
        <pt x="506" y="991" on="1"/>
        <pt x="506" y="841" on="0"/>
        <pt x="359" y="518" on="0"/>
        <pt x="233" y="399" on="1"/>
        <pt x="100" y="518" on="1"/>
        <pt x="202" y="605" on="0"/>
        <pt x="328" y="905" on="0"/>
        <pt x="328" y="1072" on="1"/>
        <pt x="328" y="1290" on="0"/>
        <pt x="264" y="1401" on="1"/>
        <pt x="404" y="1494" on="1"/>
        <pt x="801" y="1005" on="0"/>
        <pt x="1086" y="447" on="1"/>
        <pt x="1098" y="695" on="0"/>
        <pt x="1305" y="1263" on="0"/>
        <pt x="1465" y="1482" on="1"/>
      </contour>
    </TTGlyph>
    <TTGlyph name="glyph00005" xMin="100" yMin="-50" xMax="1322" yMax="1482">
      <contour>
        <pt x="1312" y="1482" on="1"/>
        <pt x="1322" y="1360" on="0"/>
        <pt x="1322" y="1196" on="1"/>
        <pt x="1322" y="885" on="0"/>
        <pt x="1200" y="501" on="0"/>
        <pt x="945" y="227" on="0"/>
        <pt x="520" y="20" on="0"/>
        <pt x="218" y="-50" on="1"/>
        <pt x="159" y="111" on="1"/>
        <pt x="392" y="169" on="0"/>
        <pt x="719" y="311" on="0"/>
        <pt x="938" y="478" on="0"/>
        <pt x="1069" y="686" on="0"/>
        <pt x="1133" y="948" on="0"/>
        <pt x="1141" y="1207" on="1"/>
        <pt x="1018" y="1100" on="0"/>
        <pt x="710" y="983" on="0"/>
        <pt x="559" y="983" on="1"/>
        <pt x="189" y="983" on="0"/>
        <pt x="100" y="1430" on="1"/>
        <pt x="270" y="1482" on="1"/>
        <pt x="299" y="1355" on="0"/>
        <pt x="377" y="1211" on="0"/>
        <pt x="486" y="1148" on="0"/>
        <pt x="585" y="1148" on="1"/>
        <pt x="662" y="1148" on="0"/>
        <pt x="895" y="1226" on="0"/>
        <pt x="1096" y="1359" on="0"/>
        <pt x="1139" y="1429" on="1"/>
      </contour>
    </TTGlyph>
    <TTGlyph name="glyph00006" xMin="40" yMin="-50" xMax="1667" yMax="1482">
      <contour>
        <pt x="40" y="411" on="1"/>
        <pt x="165" y="471" on="0"/>
        <pt x="433" y="686" on="0"/>
        <pt x="689" y="964" on="0"/>
        <pt x="911" y="1279" on="0"/>
        <pt x="956" y="1383" on="1"/>
        <pt x="962" y="1407" on="1"/>
        <pt x="969" y="1430" on="1"/>
        <pt x="1147" y="1482" on="1"/>
        <pt x="1141" y="1404" on="0"/>
        <pt x="1141" y="1234" on="1"/>
        <pt x="1141" y="969" on="0"/>
        <pt x="1206" y="639" on="0"/>
        <pt x="1331" y="392" on="0"/>
        <pt x="1529" y="186" on="0"/>
        <pt x="1667" y="110" on="1"/>
        <pt x="1608" y="-50" on="1"/>
        <pt x="1306" y="88" on="0"/>
        <pt x="976" y="650" on="0"/>
        <pt x="962" y="1051" on="1"/>
        <pt x="582" y="504" on="0"/>
        <pt x="147" y="269" on="1"/>
      </contour>
    </TTGlyph>
    <TTGlyph name="glyph00007" xMin="40" yMin="-50" xMax="1137" yMax="1484">
      <contour>
        <pt x="1137" y="1442" on="1"/>
        <pt x="1035" y="1047" on="0"/>
        <pt x="965" y="-50" on="1"/>
        <pt x="797" y="0" on="1"/>
        <pt x="797" y="147" on="0"/>
        <pt x="862" y="886" on="0"/>
        <pt x="904" y="1142" on="1"/>
        <pt x="808" y="1064" on="0"/>
        <pt x="572" y="976" on="0"/>
        <pt x="453" y="976" on="1"/>
        <pt x="83" y="976" on="0"/>
        <pt x="40" y="1410" on="1"/>
        <pt x="210" y="1462" on="1"/>
        <pt x="224" y="1348" on="0"/>
        <pt x="289" y="1206" on="0"/>
        <pt x="387" y="1141" on="0"/>
        <pt x="469" y="1141" on="1"/>
        <pt x="561" y="1141" on="0"/>
        <pt x="744" y="1210" on="0"/>
        <pt x="907" y="1342" on="0"/>
        <pt x="967" y="1443" on="1"/>
        <pt x="980" y="1484" on="1"/>
      </contour>
    </TTGlyph>
    <TTGlyph name="glyph00008" xMin="100" yMin="-50" xMax="1528" yMax="1484">
      <contour>
        <pt x="1038" y="57" on="1"/>
        <pt x="1180" y="277" on="0"/>
        <pt x="1348" y="711" on="0"/>
        <pt x="1348" y="869" on="1"/>
        <pt x="1348" y="920" on="0"/>
        <pt x="1235" y="1146" on="0"/>
        <pt x="1107" y="1319" on="0"/>
        <pt x="1077" y="1319" on="1"/>
        <pt x="1015" y="1319" on="0"/>
        <pt x="800" y="1226" on="1"/>
        <pt x="786" y="983" on="0"/>
        <pt x="594" y="459" on="0"/>
        <pt x="434" y="224" on="1"/>
        <pt x="297" y="331" on="1"/>
        <pt x="422" y="525" on="0"/>
        <pt x="588" y="952" on="0"/>
        <pt x="614" y="1144" on="1"/>
        <pt x="160" y="943" on="1"/>
        <pt x="100" y="1081" on="1"/>
        <pt x="559" y="1289" on="1"/>
        <pt x="735" y="1369" on="0"/>
        <pt x="1054" y="1484" on="0"/>
        <pt x="1111" y="1484" on="1"/>
        <pt x="1178" y="1484" on="0"/>
        <pt x="1366" y="1265" on="0"/>
        <pt x="1528" y="974" on="0"/>
        <pt x="1528" y="916" on="1"/>
        <pt x="1528" y="467" on="0"/>
        <pt x="1175" y="-50" on="1"/>
      </contour>
    </TTGlyph>
    <TTGlyph name="glyph00009" xMin="60" yMin="-50" xMax="715" yMax="1481">
      <contour>
        <pt x="60" y="1450" on="1"/>
        <pt x="171" y="1481" on="0"/>
        <pt x="291" y="1481" on="1"/>
        <pt x="501" y="1481" on="0"/>
        <pt x="715" y="1197" on="0"/>
        <pt x="715" y="912" on="1"/>
        <pt x="715" y="777" on="1"/>
        <pt x="715" y="559" on="0"/>
        <pt x="680" y="94" on="0"/>
        <pt x="650" y="-50" on="1"/>
        <pt x="472" y="0" on="1"/>
        <pt x="498" y="145" on="0"/>
        <pt x="535" y="571" on="0"/>
        <pt x="535" y="771" on="1"/>
        <pt x="535" y="987" on="0"/>
        <pt x="504" y="1161" on="0"/>
        <pt x="439" y="1264" on="0"/>
        <pt x="332" y="1316" on="0"/>
        <pt x="255" y="1316" on="1"/>
        <pt x="172" y="1316" on="0"/>
        <pt x="79" y="1297" on="1"/>
        <pt x="75" y="1296" on="1"/>
      </contour>
    </TTGlyph>
    <TTGlyph name="glyph00010" xMin="230" yMin="-50" xMax="483" yMax="1482">
      <contour>
        <pt x="483" y="1026" on="1"/>
        <pt x="483" y="719" on="0"/>
        <pt x="442" y="140" on="0"/>
        <pt x="407" y="-50" on="1"/>
        <pt x="230" y="0" on="1"/>
        <pt x="263" y="198" on="0"/>
        <pt x="303" y="767" on="0"/>
        <pt x="303" y="1033" on="1"/>
        <pt x="303" y="1167" on="0"/>
        <pt x="292" y="1448" on="0"/>
        <pt x="288" y="1482" on="1"/>
        <pt x="467" y="1462" on="1"/>
        <pt x="472" y="1432" on="0"/>
        <pt x="483" y="1163" on="0"/>
      </contour>
    </TTGlyph>
    <TTGlyph name="glyph00011" xMin="40" yMin="-50" xMax="1361" yMax="1564">
      <contour>
        <pt x="40" y="75" on="1"/>
        <pt x="152" y="187" on="0"/>
        <pt x="315" y="516" on="0"/>
        <pt x="403" y="947" on="0"/>
        <pt x="403" y="1174" on="1"/>
        <pt x="397" y="1275" on="1"/>
        <pt x="261" y="1342" on="0"/>
        <pt x="189" y="1440" on="1"/>
        <pt x="289" y="1564" on="1"/>
        <pt x="369" y="1466" on="0"/>
        <pt x="640" y="1357" on="0"/>
        <pt x="799" y="1357" on="1"/>
        <pt x="898" y="1357" on="0"/>
        <pt x="1169" y="1433" on="0"/>
        <pt x="1246" y="1487" on="1"/>
        <pt x="1361" y="1316" on="0"/>
        <pt x="1361" y="995" on="1"/>
        <pt x="1361" y="507" on="0"/>
        <pt x="1149" y="119" on="1"/>
        <pt x="995" y="214" on="1"/>
        <pt x="1083" y="388" on="0"/>
        <pt x="1181" y="779" on="0"/>
        <pt x="1181" y="956" on="1"/>
        <pt x="1181" y="1154" on="0"/>
        <pt x="1149" y="1267" on="1"/>
        <pt x="962" y="1192" on="0"/>
        <pt x="762" y="1192" on="1"/>
        <pt x="667" y="1192" on="0"/>
        <pt x="582" y="1211" on="1"/>
        <pt x="583" y="1164" on="1"/>
        <pt x="583" y="1104" on="1"/>
        <pt x="583" y="886" on="0"/>
        <pt x="478" y="432" on="0"/>
        <pt x="295" y="79" on="0"/>
        <pt x="169" y="-50" on="1"/>
      </contour>
    </TTGlyph>
    <TTGlyph name="glyph00012" xMin="160" yMin="-44" xMax="1304" yMax="1483">
      <contour>
        <pt x="737" y="1049" on="1"/>
        <pt x="787" y="1068" on="1"/>
        <pt x="906" y="1115" on="0"/>
        <pt x="1103" y="1168" on="0"/>
        <pt x="1153" y="1168" on="1"/>
        <pt x="1234" y="1168" on="0"/>
        <pt x="1304" y="1039" on="0"/>
        <pt x="1304" y="902" on="1"/>
        <pt x="1304" y="593" on="0"/>
        <pt x="1159" y="165" on="0"/>
        <pt x="886" y="-44" on="0"/>
        <pt x="691" y="-44" on="1"/>
        <pt x="535" y="-44" on="0"/>
        <pt x="297" y="137" on="0"/>
        <pt x="160" y="486" on="0"/>
        <pt x="160" y="697" on="1"/>
        <pt x="160" y="949" on="0"/>
        <pt x="340" y="1319" on="0"/>
        <pt x="543" y="1483" on="1"/>
        <pt x="647" y="1348" on="1"/>
        <pt x="483" y="1218" on="0"/>
        <pt x="340" y="916" on="0"/>
        <pt x="340" y="692" on="1"/>
        <pt x="340" y="526" on="0"/>
        <pt x="433" y="259" on="0"/>
        <pt x="596" y="121" on="0"/>
        <pt x="706" y="121" on="1"/>
        <pt x="832" y="121" on="0"/>
        <pt x="1018" y="286" on="0"/>
        <pt x="1124" y="623" on="0"/>
        <pt x="1124" y="842" on="1"/>
        <pt x="1124" y="900" on="0"/>
        <pt x="1106" y="964" on="0"/>
        <pt x="1076" y="992" on="0"/>
        <pt x="1042" y="992" on="1"/>
        <pt x="1017" y="992" on="0"/>
        <pt x="880" y="941" on="0"/>
        <pt x="780" y="904" on="1"/>
      </contour>
    </TTGlyph>
    <TTGlyph name="glyph00013" xMin="100" yMin="758" xMax="1170" yMax="1515">
      <contour>
        <pt x="1170" y="918" on="1"/>
        <pt x="1111" y="758" on="1"/>
        <pt x="939" y="836" on="0"/>
        <pt x="675" y="1094" on="0"/>
        <pt x="596" y="1268" on="1"/>
        <pt x="404" y="1051" on="0"/>
        <pt x="199" y="887" on="1"/>
        <pt x="100" y="1036" on="1"/>
        <pt x="240" y="1150" on="0"/>
        <pt x="492" y="1410" on="0"/>
        <pt x="570" y="1515" on="1"/>
        <pt x="716" y="1450" on="1"/>
        <pt x="786" y="1262" on="0"/>
        <pt x="1002" y="1011" on="0"/>
      </contour>
    </TTGlyph>
    <TTGlyph name="glyph00014" xMin="10" yMin="-480" xMax="1015" yMax="1484">
      <contour>
        <pt x="10" y="-316" on="1"/>
        <pt x="257" y="-270" on="0"/>
        <pt x="567" y="-89" on="0"/>
        <pt x="713" y="203" on="0"/>
        <pt x="713" y="443" on="1"/>
        <pt x="713" y="783" on="1"/>
        <pt x="713" y="906" on="0"/>
        <pt x="725" y="1020" on="1"/>
        <pt x="600" y="913" on="0"/>
        <pt x="449" y="913" on="1"/>
        <pt x="309" y="913" on="0"/>
        <pt x="155" y="1103" on="0"/>
        <pt x="155" y="1281" on="1"/>
        <pt x="155" y="1368" on="0"/>
        <pt x="172" y="1482" on="1"/>
        <pt x="348" y="1432" on="1"/>
        <pt x="335" y="1337" on="0"/>
        <pt x="335" y="1274" on="1"/>
        <pt x="335" y="1184" on="0"/>
        <pt x="408" y="1078" on="0"/>
        <pt x="475" y="1078" on="1"/>
        <pt x="553" y="1078" on="0"/>
        <pt x="741" y="1263" on="0"/>
        <pt x="807" y="1399" on="1"/>
        <pt x="821" y="1441" on="0"/>
        <pt x="841" y="1484" on="1"/>
        <pt x="1015" y="1442" on="1"/>
        <pt x="962" y="1337" on="0"/>
        <pt x="893" y="968" on="0"/>
        <pt x="893" y="746" on="1"/>
        <pt x="893" y="490" on="1"/>
        <pt x="893" y="188" on="0"/>
        <pt x="707" y="-198" on="0"/>
        <pt x="332" y="-429" on="0"/>
        <pt x="48" y="-480" on="1"/>
      </contour>
    </TTGlyph>
    <TTGlyph name="glyph00015" xMin="160" yMin="-128" xMax="1204" yMax="1480">
      <contour>
        <pt x="936" y="-128" on="1"/>
        <pt x="1008" y="2" on="0"/>
        <pt x="1018" y="82" on="1"/>
        <pt x="914" y="27" on="0"/>
        <pt x="640" y="-43" on="0"/>
        <pt x="549" y="-43" on="1"/>
        <pt x="351" y="-43" on="0"/>
        <pt x="160" y="210" on="0"/>
        <pt x="160" y="466" on="1"/>
        <pt x="160" y="924" on="0"/>
        <pt x="419" y="1480" on="1"/>
        <pt x="584" y="1422" on="1"/>
        <pt x="463" y="1166" on="0"/>
        <pt x="340" y="683" on="0"/>
        <pt x="340" y="476" on="1"/>
        <pt x="340" y="271" on="0"/>
        <pt x="441" y="122" on="0"/>
        <pt x="569" y="122" on="1"/>
        <pt x="707" y="122" on="0"/>
        <pt x="962" y="233" on="1"/>
        <pt x="998" y="250" on="1"/>
        <pt x="1082" y="291" on="0"/>
        <pt x="1108" y="291" on="1"/>
        <pt x="1156" y="291" on="0"/>
        <pt x="1204" y="236" on="0"/>
        <pt x="1204" y="189" on="1"/>
        <pt x="1204" y="131" on="0"/>
        <pt x="1155" y="-36" on="0"/>
        <pt x="1110" y="-127" on="1"/>
      </contour>
    </TTGlyph>
    <TTGlyph name="glyph00016" xMin="40" yMin="-260" xMax="1294" yMax="1656">
      <contour>
        <pt x="821" y="1590" on="1"/>
        <pt x="747" y="1378" on="0"/>
        <pt x="630" y="1162" on="1"/>
        <pt x="742" y="1124" on="0"/>
        <pt x="869" y="1124" on="1"/>
        <pt x="1086" y="1124" on="0"/>
        <pt x="1245" y="1151" on="1"/>
        <pt x="1294" y="1078" on="0"/>
        <pt x="1294" y="910" on="1"/>
        <pt x="1294" y="713" on="0"/>
        <pt x="1049" y="98" on="0"/>
        <pt x="821" y="-260" on="1"/>
        <pt x="684" y="-163" on="1"/>
        <pt x="880" y="154" on="0"/>
        <pt x="1114" y="725" on="0"/>
        <pt x="1114" y="881" on="1"/>
        <pt x="1114" y="937" on="0"/>
        <pt x="1106" y="971" on="1"/>
        <pt x="974" y="959" on="0"/>
        <pt x="867" y="959" on="1"/>
        <pt x="693" y="959" on="0"/>
        <pt x="544" y="1015" on="1"/>
        <pt x="370" y="739" on="0"/>
        <pt x="167" y="564" on="1"/>
        <pt x="40" y="679" on="1"/>
        <pt x="226" y="843" on="0"/>
        <pt x="387" y="1095" on="1"/>
        <pt x="244" y="1190" on="0"/>
        <pt x="159" y="1336" on="1"/>
        <pt x="304" y="1435" on="1"/>
        <pt x="359" y="1317" on="0"/>
        <pt x="473" y="1239" on="1"/>
        <pt x="589" y="1450" on="0"/>
        <pt x="651" y="1656" on="1"/>
      </contour>
    </TTGlyph>
    <TTGlyph name="glyph00017" xMin="130" yMin="-260" xMax="733" yMax="1488">
      <contour>
        <pt x="223" y="-174" on="1"/>
        <pt x="357" y="9" on="0"/>
        <pt x="553" y="500" on="0"/>
        <pt x="553" y="628" on="1"/>
        <pt x="553" y="708" on="0"/>
        <pt x="532" y="758" on="0"/>
        <pt x="512" y="758" on="1"/>
        <pt x="484" y="758" on="0"/>
        <pt x="419" y="748" on="1"/>
        <pt x="354" y="738" on="0"/>
        <pt x="319" y="738" on="1"/>
        <pt x="226" y="738" on="0"/>
        <pt x="130" y="871" on="0"/>
        <pt x="130" y="994" on="1"/>
        <pt x="130" y="1110" on="0"/>
        <pt x="246" y="1384" on="0"/>
        <pt x="330" y="1488" on="1"/>
        <pt x="472" y="1390" on="1"/>
        <pt x="392" y="1273" on="0"/>
        <pt x="310" y="1067" on="0"/>
        <pt x="310" y="994" on="1"/>
        <pt x="310" y="903" on="0"/>
        <pt x="376" y="903" on="1"/>
        <pt x="417" y="903" on="0"/>
        <pt x="509" y="913" on="1"/>
        <pt x="600" y="923" on="0"/>
        <pt x="630" y="923" on="1"/>
        <pt x="678" y="923" on="0"/>
        <pt x="733" y="831" on="0"/>
        <pt x="733" y="735" on="1"/>
        <pt x="733" y="514" on="0"/>
        <pt x="538" y="-15" on="0"/>
        <pt x="368" y="-260" on="1"/>
      </contour>
    </TTGlyph>
    <TTGlyph name="glyph00018" xMin="80" yMin="-260" xMax="1362" yMax="1488">
      <contour>
        <pt x="893" y="1367" on="1"/>
        <pt x="870" y="1261" on="0"/>
        <pt x="806" y="1055" on="0"/>
        <pt x="749" y="948" on="1"/>
        <pt x="905" y="1004" on="0"/>
        <pt x="1148" y="1138" on="0"/>
        <pt x="1210" y="1207" on="1"/>
        <pt x="1358" y="1144" on="1"/>
        <pt x="1362" y="956" on="1"/>
        <pt x="1362" y="649" on="0"/>
        <pt x="1242" y="278" on="0"/>
        <pt x="988" y="12" on="0"/>
        <pt x="567" y="-188" on="0"/>
        <pt x="258" y="-260" on="1"/>
        <pt x="199" y="-99" on="1"/>
        <pt x="435" y="-40" on="0"/>
        <pt x="768" y="98" on="0"/>
        <pt x="989" y="260" on="0"/>
        <pt x="1120" y="461" on="0"/>
        <pt x="1180" y="719" on="0"/>
        <pt x="1182" y="970" on="1"/>
        <pt x="1066" y="886" on="0"/>
        <pt x="689" y="745" on="0"/>
        <pt x="585" y="742" on="1"/>
        <pt x="524" y="887" on="1"/>
        <pt x="626" y="1039" on="0"/>
        <pt x="694" y="1265" on="1"/>
        <pt x="445" y="1123" on="0"/>
        <pt x="133" y="1028" on="1"/>
        <pt x="80" y="1180" on="1"/>
        <pt x="274" y="1246" on="0"/>
        <pt x="657" y="1420" on="0"/>
        <pt x="751" y="1488" on="1"/>
      </contour>
    </TTGlyph>
    <TTGlyph name="glyph00019" xMin="100" yMin="775" xMax="942" yMax="1497">
      <contour>
        <pt x="336" y="1421" on="1"/>
        <pt x="280" y="1280" on="0"/>
        <pt x="280" y="1171" on="1"/>
        <pt x="280" y="1048" on="0"/>
        <pt x="366" y="940" on="0"/>
        <pt x="452" y="940" on="1"/>
        <pt x="578" y="940" on="0"/>
        <pt x="751" y="1236" on="0"/>
        <pt x="770" y="1479" on="1"/>
        <pt x="942" y="1460" on="1"/>
        <pt x="911" y="1126" on="0"/>
        <pt x="659" y="775" on="0"/>
        <pt x="447" y="775" on="1"/>
        <pt x="287" y="775" on="0"/>
        <pt x="100" y="993" on="0"/>
        <pt x="100" y="1176" on="1"/>
        <pt x="100" y="1315" on="0"/>
        <pt x="175" y="1497" on="1"/>
      </contour>
    </TTGlyph>
    <TTGlyph name="glyph00020" xMin="100" yMin="-50" xMax="994" yMax="1492">
      <contour>
        <pt x="480" y="1492" on="1"/>
        <pt x="639" y="1451" on="0"/>
        <pt x="927" y="1295" on="0"/>
        <pt x="994" y="1216" on="1"/>
        <pt x="994" y="937" on="0"/>
        <pt x="834" y="499" on="0"/>
        <pt x="510" y="121" on="0"/>
        <pt x="266" y="-50" on="1"/>
        <pt x="162" y="86" on="1"/>
        <pt x="480" y="306" on="0"/>
        <pt x="802" y="821" on="0"/>
        <pt x="814" y="1135" on="1"/>
        <pt x="762" y="1178" on="0"/>
        <pt x="590" y="1268" on="0"/>
        <pt x="504" y="1300" on="1"/>
        <pt x="350" y="1152" on="0"/>
        <pt x="195" y="1060" on="1"/>
        <pt x="100" y="1180" on="1"/>
        <pt x="168" y="1225" on="0"/>
        <pt x="335" y="1361" on="0"/>
      </contour>
    </TTGlyph>
    <TTGlyph name="glyph00021" xMin="200" yMin="-260" xMax="1134" yMax="1488">
      <contour>
        <pt x="229" y="-211" on="1"/>
        <pt x="286" y="-35" on="0"/>
        <pt x="354" y="463" on="0"/>
        <pt x="354" y="718" on="1"/>
        <pt x="354" y="904" on="0"/>
        <pt x="276" y="1256" on="0"/>
        <pt x="200" y="1402" on="1"/>
        <pt x="349" y="1488" on="1"/>
        <pt x="422" y="1321" on="0"/>
        <pt x="527" y="1165" on="0"/>
        <pt x="642" y="1092" on="0"/>
        <pt x="714" y="1092" on="1"/>
        <pt x="815" y="1092" on="0"/>
        <pt x="937" y="1232" on="0"/>
        <pt x="963" y="1371" on="1"/>
        <pt x="1134" y="1316" on="1"/>
        <pt x="1108" y="1137" on="0"/>
        <pt x="893" y="927" on="0"/>
        <pt x="730" y="927" on="1"/>
        <pt x="607" y="927" on="0"/>
        <pt x="523" y="969" on="1"/>
        <pt x="534" y="878" on="0"/>
        <pt x="534" y="705" on="1"/>
        <pt x="534" y="454" on="0"/>
        <pt x="459" y="-66" on="0"/>
        <pt x="398" y="-260" on="1"/>
      </contour>
    </TTGlyph>
    <TTGlyph name="glyph00022" xMin="200" yMin="-260" xMax="1133" yMax="1488">
      <contour>
        <pt x="229" y="-211" on="1"/>
        <pt x="303" y="69" on="0"/>
        <pt x="354" y="407" on="0"/>
        <pt x="354" y="617" on="1"/>
        <pt x="354" y="825" on="0"/>
        <pt x="266" y="1278" on="0"/>
        <pt x="200" y="1402" on="1"/>
        <pt x="356" y="1488" on="1"/>
        <pt x="396" y="1414" on="0"/>
        <pt x="428" y="1324" on="1"/>
        <pt x="541" y="1396" on="0"/>
        <pt x="783" y="1483" on="0"/>
        <pt x="868" y="1483" on="1"/>
        <pt x="963" y="1483" on="0"/>
        <pt x="1071" y="1429" on="0"/>
        <pt x="1133" y="1315" on="0"/>
        <pt x="1133" y="1221" on="1"/>
        <pt x="1133" y="1098" on="0"/>
        <pt x="977" y="810" on="0"/>
        <pt x="698" y="544" on="0"/>
        <pt x="528" y="449" on="1"/>
        <pt x="507" y="85" on="0"/>
        <pt x="398" y="-260" on="1"/>
      </contour>
      <contour>
        <pt x="474" y="1167" on="1"/>
        <pt x="534" y="921" on="0"/>
        <pt x="534" y="666" on="1"/>
        <pt x="534" y="646" on="1"/>
        <pt x="651" y="718" on="0"/>
        <pt x="844" y="924" on="0"/>
        <pt x="953" y="1138" on="0"/>
        <pt x="953" y="1218" on="1"/>
        <pt x="953" y="1270" on="0"/>
        <pt x="902" y="1318" on="0"/>
        <pt x="832" y="1318" on="1"/>
        <pt x="779" y="1318" on="0"/>
        <pt x="575" y="1234" on="0"/>
      </contour>
    </TTGlyph>
    <TTGlyph name="glyph00023" xMin="100" yMin="-566" xMax="1214" yMax="1484">
      <contour>
        <pt x="567" y="-468" on="1"/>
        <pt x="728" y="-266" on="0"/>
        <pt x="879" y="176" on="0"/>
        <pt x="898" y="550" on="1"/>
        <pt x="916" y="922" on="0"/>
        <pt x="947" y="1129" on="1"/>
        <pt x="857" y="1058" on="0"/>
        <pt x="627" y="976" on="0"/>
        <pt x="513" y="976" on="1"/>
        <pt x="143" y="976" on="0"/>
        <pt x="100" y="1410" on="1"/>
        <pt x="270" y="1462" on="1"/>
        <pt x="284" y="1348" on="0"/>
        <pt x="349" y="1206" on="0"/>
        <pt x="447" y="1141" on="0"/>
        <pt x="529" y="1141" on="1"/>
        <pt x="618" y="1141" on="0"/>
        <pt x="798" y="1207" on="0"/>
        <pt x="956" y="1331" on="0"/>
        <pt x="1017" y="1428" on="1"/>
        <pt x="1040" y="1484" on="1"/>
        <pt x="1214" y="1442" on="1"/>
        <pt x="1110" y="1237" on="0"/>
        <pt x="1092" y="746" on="1"/>
        <pt x="1080" y="421" on="0"/>
        <pt x="1026" y="57" on="0"/>
        <pt x="936" y="-226" on="0"/>
        <pt x="801" y="-467" on="0"/>
        <pt x="707" y="-566" on="1"/>
      </contour>
    </TTGlyph>
    <TTGlyph name="glyph00024" xMin="160" yMin="-24" xMax="1796" yMax="1482">
      <contour>
        <pt x="1021" y="1213" on="1"/>
        <pt x="899" y="846" on="0"/>
        <pt x="648" y="524" on="1"/>
        <pt x="823" y="141" on="0"/>
        <pt x="941" y="141" on="1"/>
        <pt x="1001" y="141" on="0"/>
        <pt x="1243" y="375" on="0"/>
        <pt x="1514" y="757" on="0"/>
        <pt x="1629" y="969" on="1"/>
        <pt x="1796" y="908" on="1"/>
        <pt x="1652" y="637" on="0"/>
        <pt x="1328" y="200" on="0"/>
        <pt x="1043" y="-24" on="0"/>
        <pt x="910" y="-24" on="1"/>
        <pt x="819" y="-24" on="0"/>
        <pt x="612" y="197" on="0"/>
        <pt x="390" y="639" on="0"/>
        <pt x="189" y="1245" on="0"/>
        <pt x="160" y="1431" on="1"/>
        <pt x="340" y="1482" on="1"/>
        <pt x="364" y="1344" on="0"/>
        <pt x="499" y="899" on="0"/>
        <pt x="570" y="713" on="1"/>
        <pt x="746" y="979" on="0"/>
        <pt x="858" y="1278" on="1"/>
      </contour>
    </TTGlyph>
    <TTGlyph name="glyph00025" xMin="-60" yMin="-260" xMax="1143" yMax="1493">
      <contour>
        <pt x="661" y="302" on="1"/>
        <pt x="785" y="563" on="0"/>
        <pt x="963" y="1097" on="0"/>
        <pt x="963" y="1223" on="1"/>
        <pt x="963" y="1248" on="0"/>
        <pt x="911" y="1324" on="0"/>
        <pt x="887" y="1324" on="1"/>
        <pt x="843" y="1324" on="0"/>
        <pt x="570" y="1185" on="0"/>
        <pt x="404" y="1080" on="1"/>
        <pt x="406" y="980" on="1"/>
        <pt x="406" y="679" on="0"/>
        <pt x="246" y="50" on="0"/>
        <pt x="94" y="-260" on="1"/>
        <pt x="-60" y="-185" on="1"/>
        <pt x="96" y="162" on="0"/>
        <pt x="226" y="709" on="0"/>
        <pt x="226" y="975" on="1"/>
        <pt x="226" y="1117" on="0"/>
        <pt x="196" y="1359" on="0"/>
        <pt x="173" y="1427" on="1"/>
        <pt x="336" y="1486" on="1"/>
        <pt x="368" y="1393" on="0"/>
        <pt x="387" y="1260" on="1"/>
        <pt x="770" y="1493" on="0"/>
        <pt x="940" y="1493" on="1"/>
        <pt x="982" y="1493" on="0"/>
        <pt x="1071" y="1417" on="0"/>
        <pt x="1143" y="1280" on="0"/>
        <pt x="1143" y="1232" on="1"/>
        <pt x="1143" y="1078" on="0"/>
        <pt x="952" y="487" on="0"/>
        <pt x="830" y="240" on="1"/>
      </contour>
    </TTGlyph>
    <TTGlyph name="glyph00026" xMin="120" yMin="-50" xMax="1286" yMax="1490">
      <contour>
        <pt x="489" y="2" on="1"/>
        <pt x="517" y="75" on="0"/>
        <pt x="550" y="353" on="0"/>
        <pt x="550" y="516" on="1"/>
        <pt x="550" y="644" on="0"/>
        <pt x="524" y="776" on="1"/>
        <pt x="298" y="786" on="0"/>
        <pt x="120" y="817" on="1"/>
        <pt x="140" y="981" on="1"/>
        <pt x="300" y="951" on="0"/>
        <pt x="484" y="941" on="1"/>
        <pt x="420" y="1170" on="0"/>
        <pt x="296" y="1432" on="1"/>
        <pt x="461" y="1490" on="1"/>
        <pt x="556" y="1284" on="0"/>
        <pt x="621" y="1077" on="1"/>
        <pt x="742" y="1321" on="0"/>
        <pt x="939" y="1482" on="1"/>
        <pt x="1043" y="1347" on="1"/>
        <pt x="944" y="1270" on="0"/>
        <pt x="773" y="1048" on="0"/>
        <pt x="731" y="942" on="1"/>
        <pt x="989" y="958" on="0"/>
        <pt x="1223" y="1024" on="1"/>
        <pt x="1286" y="868" on="1"/>
        <pt x="1013" y="778" on="0"/>
        <pt x="706" y="774" on="1"/>
        <pt x="730" y="640" on="0"/>
        <pt x="730" y="506" on="1"/>
        <pt x="730" y="372" on="0"/>
        <pt x="687" y="45" on="0"/>
        <pt x="655" y="-50" on="1"/>
      </contour>
    </TTGlyph>
    <TTGlyph name="glyph00027" xMin="200" yMin="-20" xMax="591" yMax="1483">
      <contour>
        <pt x="377" y="1483" on="1"/>
        <pt x="471" y="1165" on="0"/>
        <pt x="591" y="391" on="0"/>
        <pt x="591" y="92" on="1"/>
        <pt x="588" y="-20" on="1"/>
        <pt x="410" y="0" on="1"/>
        <pt x="411" y="40" on="1"/>
        <pt x="411" y="80" on="1"/>
        <pt x="411" y="233" on="0"/>
        <pt x="364" y="688" on="0"/>
        <pt x="265" y="1229" on="0"/>
        <pt x="200" y="1450" on="1"/>
      </contour>
    </TTGlyph>
    <TTGlyph name="glyph00028" xMin="200" yMin="-20" xMax="1027" yMax="1483">
      <contour>
        <pt x="377" y="1483" on="1"/>
        <pt x="471" y="1165" on="0"/>
        <pt x="591" y="391" on="0"/>
        <pt x="591" y="92" on="1"/>
        <pt x="588" y="-20" on="1"/>
        <pt x="410" y="0" on="1"/>
        <pt x="411" y="40" on="1"/>
        <pt x="411" y="80" on="1"/>
        <pt x="411" y="233" on="0"/>
        <pt x="364" y="688" on="0"/>
        <pt x="265" y="1229" on="0"/>
        <pt x="200" y="1450" on="1"/>
      </contour>
      <contour>
        <pt x="1027" y="1483" on="1"/>
        <pt x="1027" y="1371" on="1"/>
        <pt x="1027" y="1003" on="0"/>
        <pt x="929" y="265" on="0"/>
        <pt x="840" y="-20" on="1"/>
        <pt x="674" y="25" on="1"/>
        <pt x="751" y="289" on="0"/>
        <pt x="846" y="1061" on="0"/>
        <pt x="846" y="1406" on="1"/>
        <pt x="846" y="1450" on="1"/>
      </contour>
    </TTGlyph>
    <TTGlyph name="glyph00029" xMin="200" yMin="-20" xMax="1541" yMax="1483">
      <contour>
        <pt x="377" y="1483" on="1"/>
        <pt x="471" y="1165" on="0"/>
        <pt x="591" y="391" on="0"/>
        <pt x="591" y="92" on="1"/>
        <pt x="588" y="-20" on="1"/>
        <pt x="410" y="0" on="1"/>
        <pt x="411" y="40" on="1"/>
        <pt x="411" y="80" on="1"/>
        <pt x="411" y="233" on="0"/>
        <pt x="364" y="688" on="0"/>
        <pt x="265" y="1229" on="0"/>
        <pt x="200" y="1450" on="1"/>
      </contour>
      <contour>
        <pt x="1027" y="1483" on="1"/>
        <pt x="1027" y="1371" on="1"/>
        <pt x="1027" y="1003" on="0"/>
        <pt x="929" y="265" on="0"/>
        <pt x="840" y="-20" on="1"/>
        <pt x="674" y="25" on="1"/>
        <pt x="751" y="289" on="0"/>
        <pt x="846" y="1061" on="0"/>
        <pt x="846" y="1406" on="1"/>
        <pt x="846" y="1450" on="1"/>
      </contour>
      <contour>
        <pt x="1541" y="1483" on="1"/>
        <pt x="1493" y="1114" on="0"/>
        <pt x="1259" y="276" on="0"/>
        <pt x="1118" y="-20" on="1"/>
        <pt x="950" y="25" on="1"/>
        <pt x="1071" y="288" on="0"/>
        <pt x="1298" y="1096" on="0"/>
        <pt x="1349" y="1450" on="1"/>
      </contour>
    </TTGlyph>
    <TTGlyph name="glyph00030" xMin="150" yMin="259" xMax="1408" yMax="1011">
      <contour>
        <pt x="150" y="968" on="1"/>
        <pt x="408" y="1011" on="0"/>
        <pt x="736" y="1011" on="1"/>
        <pt x="823" y="1011" on="0"/>
        <pt x="1025" y="995" on="0"/>
        <pt x="1232" y="963" on="0"/>
        <pt x="1374" y="928" on="0"/>
        <pt x="1408" y="905" on="0"/>
        <pt x="1408" y="880" on="1"/>
        <pt x="1408" y="600" on="0"/>
        <pt x="1250" y="259" on="1"/>
        <pt x="1094" y="338" on="1"/>
        <pt x="1208" y="595" on="0"/>
        <pt x="1225" y="790" on="1"/>
        <pt x="1114" y="813" on="0"/>
        <pt x="814" y="846" on="0"/>
        <pt x="687" y="846" on="1"/>
        <pt x="400" y="846" on="0"/>
        <pt x="170" y="804" on="1"/>
      </contour>
    </TTGlyph>
    <TTGlyph name="glyph00031" xMin="150" yMin="78" xMax="1524" yMax="1251">
      <contour>
        <pt x="150" y="1237" on="1"/>
        <pt x="312" y="1251" on="0"/>
        <pt x="491" y="1251" on="1"/>
        <pt x="656" y="1251" on="0"/>
        <pt x="1018" y="1204" on="0"/>
        <pt x="1130" y="1167" on="1"/>
        <pt x="1163" y="1156" on="0"/>
        <pt x="1163" y="1120" on="1"/>
        <pt x="1163" y="939" on="0"/>
        <pt x="1099" y="738" on="1"/>
        <pt x="1348" y="711" on="0"/>
        <pt x="1484" y="668" on="1"/>
        <pt x="1524" y="655" on="0"/>
        <pt x="1524" y="620" on="1"/>
        <pt x="1524" y="375" on="0"/>
        <pt x="1401" y="78" on="1"/>
        <pt x="1237" y="142" on="1"/>
        <pt x="1326" y="358" on="0"/>
        <pt x="1341" y="530" on="1"/>
        <pt x="1230" y="553" on="0"/>
        <pt x="930" y="586" on="0"/>
        <pt x="803" y="586" on="1"/>
        <pt x="675" y="586" on="0"/>
        <pt x="528" y="575" on="1"/>
        <pt x="511" y="737" on="1"/>
        <pt x="673" y="751" on="0"/>
        <pt x="852" y="751" on="1"/>
        <pt x="916" y="750" on="1"/>
        <pt x="971" y="910" on="0"/>
        <pt x="980" y="1030" on="1"/>
        <pt x="869" y="1053" on="0"/>
        <pt x="569" y="1086" on="0"/>
        <pt x="442" y="1086" on="1"/>
        <pt x="314" y="1086" on="0"/>
        <pt x="167" y="1075" on="1"/>
      </contour>
    </TTGlyph>
    <TTGlyph name="glyph00032" xMin="150" yMin="259" xMax="1468" yMax="1347">
      <contour>
        <pt x="610" y="587" on="1"/>
        <pt x="610" y="633" on="0"/>
        <pt x="701" y="702" on="0"/>
        <pt x="769" y="702" on="1"/>
        <pt x="836" y="702" on="0"/>
        <pt x="928" y="633" on="0"/>
        <pt x="928" y="587" on="1"/>
        <pt x="928" y="540" on="0"/>
        <pt x="834" y="473" on="0"/>
        <pt x="769" y="473" on="1"/>
        <pt x="703" y="473" on="0"/>
        <pt x="610" y="540" on="0"/>
      </contour>
      <contour>
        <pt x="230" y="804" on="1"/>
        <pt x="220" y="925" on="0"/>
        <pt x="169" y="1240" on="0"/>
        <pt x="150" y="1303" on="1"/>
        <pt x="321" y="1347" on="1"/>
        <pt x="356" y="1246" on="0"/>
        <pt x="390" y="992" on="1"/>
        <pt x="588" y="1011" on="0"/>
        <pt x="796" y="1011" on="1"/>
        <pt x="883" y="1011" on="0"/>
        <pt x="1085" y="995" on="0"/>
        <pt x="1292" y="963" on="0"/>
        <pt x="1434" y="928" on="0"/>
        <pt x="1468" y="905" on="0"/>
        <pt x="1468" y="880" on="1"/>
        <pt x="1468" y="600" on="0"/>
        <pt x="1310" y="259" on="1"/>
        <pt x="1154" y="338" on="1"/>
        <pt x="1268" y="595" on="0"/>
        <pt x="1285" y="790" on="1"/>
        <pt x="1174" y="813" on="0"/>
        <pt x="874" y="846" on="0"/>
        <pt x="747" y="846" on="1"/>
        <pt x="460" y="846" on="0"/>
      </contour>
    </TTGlyph>
    <TTGlyph name="glyph00033" xMin="150" yMin="-50" xMax="1393" yMax="1844">
      <contour>
        <pt x="194" y="1162" on="1"/>
        <pt x="315" y="1196" on="0"/>
        <pt x="409" y="1196" on="1"/>
        <pt x="559" y="1196" on="0"/>
        <pt x="652" y="1122" on="1"/>
        <pt x="703" y="1462" on="0"/>
        <pt x="882" y="1844" on="1"/>
        <pt x="1047" y="1786" on="1"/>
        <pt x="926" y="1530" on="0"/>
        <pt x="803" y="1047" on="0"/>
        <pt x="803" y="840" on="1"/>
        <pt x="803" y="635" on="0"/>
        <pt x="904" y="486" on="0"/>
        <pt x="1032" y="486" on="1"/>
        <pt x="1130" y="486" on="0"/>
        <pt x="1337" y="563" on="1"/>
        <pt x="1393" y="410" on="1"/>
        <pt x="1160" y="321" on="0"/>
        <pt x="1012" y="321" on="1"/>
        <pt x="828" y="321" on="0"/>
        <pt x="733" y="432" on="1"/>
        <pt x="660" y="293" on="0"/>
        <pt x="375" y="25" on="0"/>
        <pt x="232" y="-50" on="1"/>
        <pt x="150" y="104" on="1"/>
        <pt x="379" y="242" on="0"/>
        <pt x="628" y="541" on="0"/>
        <pt x="628" y="677" on="1"/>
        <pt x="628" y="876" on="0"/>
        <pt x="520" y="1031" on="0"/>
        <pt x="389" y="1031" on="1"/>
        <pt x="335" y="1031" on="0"/>
        <pt x="247" y="1007" on="1"/>
      </contour>
    </TTGlyph>
    <TTGlyph name="glyph00034" xMin="150" yMin="-81" xMax="1468" yMax="1546">
      <contour>
        <pt x="264" y="639" on="1"/>
        <pt x="503" y="671" on="0"/>
        <pt x="775" y="671" on="1"/>
        <pt x="976" y="671" on="0"/>
        <pt x="1194" y="635" on="1"/>
        <pt x="1272" y="832" on="0"/>
        <pt x="1285" y="989" on="1"/>
        <pt x="1174" y="1012" on="0"/>
        <pt x="874" y="1045" on="0"/>
        <pt x="747" y="1045" on="1"/>
        <pt x="460" y="1045" on="0"/>
        <pt x="230" y="1003" on="1"/>
        <pt x="220" y="1124" on="0"/>
        <pt x="169" y="1439" on="0"/>
        <pt x="150" y="1502" on="1"/>
        <pt x="321" y="1546" on="1"/>
        <pt x="356" y="1445" on="0"/>
        <pt x="390" y="1191" on="1"/>
        <pt x="588" y="1210" on="0"/>
        <pt x="796" y="1210" on="1"/>
        <pt x="883" y="1210" on="0"/>
        <pt x="1085" y="1194" on="0"/>
        <pt x="1292" y="1162" on="0"/>
        <pt x="1434" y="1127" on="0"/>
        <pt x="1468" y="1104" on="0"/>
        <pt x="1468" y="1079" on="1"/>
        <pt x="1468" y="857" on="0"/>
        <pt x="1369" y="598" on="1"/>
        <pt x="1425" y="583" on="0"/>
        <pt x="1447" y="559" on="0"/>
        <pt x="1447" y="540" on="1"/>
        <pt x="1447" y="260" on="0"/>
        <pt x="1289" y="-81" on="1"/>
        <pt x="1133" y="-2" on="1"/>
        <pt x="1247" y="255" on="0"/>
        <pt x="1264" y="450" on="1"/>
        <pt x="1153" y="473" on="0"/>
        <pt x="853" y="506" on="0"/>
        <pt x="726" y="506" on="1"/>
        <pt x="490" y="506" on="0"/>
        <pt x="284" y="476" on="1"/>
      </contour>
      <contour>
        <pt x="947" y="774" on="1"/>
        <pt x="823" y="787" on="0"/>
        <pt x="690" y="787" on="1"/>
        <pt x="582" y="785" on="1"/>
        <pt x="575" y="949" on="1"/>
        <pt x="739" y="952" on="1"/>
        <pt x="846" y="952" on="0"/>
        <pt x="970" y="940" on="1"/>
      </contour>
    </TTGlyph>
</ttFont>
